<svg xmlns="http://www.w3.org/2000/svg" viewBox="0 0 1200 630" fill="none">
  <defs>
    <linearGradient id="bg" x1="0" y1="0" x2="1200" y2="630" gradientUnits="userSpaceOnUse">
      <stop offset="0%" stop-color="#080810"/>
      <stop offset="100%" stop-color="#0f0f1a"/>
    </linearGradient>
    <linearGradient id="accent" x1="0" y1="0" x2="1" y2="0" gradientUnits="objectBoundingBox">
      <stop offset="0%" stop-color="#5b72f8"/>
      <stop offset="100%" stop-color="#a855f7"/>
    </linearGradient>
    <linearGradient id="glow1" x1="0" y1="0" x2="0" y2="1" gradientUnits="objectBoundingBox">
      <stop offset="0%" stop-color="#5b72f8" stop-opacity="0.3"/>
      <stop offset="100%" stop-color="#5b72f8" stop-opacity="0"/>
    </linearGradient>
    <linearGradient id="glow2" x1="0" y1="0" x2="0" y2="1" gradientUnits="objectBoundingBox">
      <stop offset="0%" stop-color="#a855f7" stop-opacity="0.2"/>
      <stop offset="100%" stop-color="#a855f7" stop-opacity="0"/>
    </linearGradient>
  </defs>

  <!-- Background -->
  <rect width="1200" height="630" fill="url(#bg)"/>

  <!-- Grid lines -->
  <g opacity="0.04" stroke="#5b72f8" stroke-width="1">
    <line x1="0" y1="52" x2="1200" y2="52"/>
    <line x1="0" y1="104" x2="1200" y2="104"/>
    <line x1="0" y1="156" x2="1200" y2="156"/>
    <line x1="0" y1="208" x2="1200" y2="208"/>
    <line x1="0" y1="260" x2="1200" y2="260"/>
    <line x1="0" y1="312" x2="1200" y2="312"/>
    <line x1="0" y1="364" x2="1200" y2="364"/>
    <line x1="0" y1="416" x2="1200" y2="416"/>
    <line x1="0" y1="468" x2="1200" y2="468"/>
    <line x1="0" y1="520" x2="1200" y2="520"/>
    <line x1="0" y1="572" x2="1200" y2="572"/>
    <line x1="52" y1="0" x2="52" y2="630"/>
    <line x1="104" y1="0" x2="104" y2="630"/>
    <line x1="156" y1="0" x2="156" y2="630"/>
    <line x1="208" y1="0" x2="208" y2="630"/>
    <line x1="260" y1="0" x2="260" y2="630"/>
    <line x1="312" y1="0" x2="312" y2="630"/>
    <line x1="364" y1="0" x2="364" y2="630"/>
    <line x1="416" y1="0" x2="416" y2="630"/>
    <line x1="468" y1="0" x2="468" y2="630"/>
    <line x1="520" y1="0" x2="520" y2="630"/>
    <line x1="572" y1="0" x2="572" y2="630"/>
    <line x1="624" y1="0" x2="624" y2="630"/>
    <line x1="676" y1="0" x2="676" y2="630"/>
    <line x1="728" y1="0" x2="728" y2="630"/>
    <line x1="780" y1="0" x2="780" y2="630"/>
    <line x1="832" y1="0" x2="832" y2="630"/>
    <line x1="884" y1="0" x2="884" y2="630"/>
    <line x1="936" y1="0" x2="936" y2="630"/>
    <line x1="988" y1="0" x2="988" y2="630"/>
    <line x1="1040" y1="0" x2="1040" y2="630"/>
    <line x1="1092" y1="0" x2="1092" y2="630"/>
    <line x1="1144" y1="0" x2="1144" y2="630"/>
  </g>

  <!-- Glow orbs -->
  <ellipse cx="200" cy="150" rx="300" ry="200" fill="url(#glow1)"/>
  <ellipse cx="1050" cy="500" rx="280" ry="200" fill="url(#glow2)"/>

  <!-- Logo icon -->
  <rect x="88" y="220" width="80" height="80" rx="20" fill="url(#accent)"/>
  <path d="M128 244 L128 268" stroke="white" stroke-width="5" stroke-linecap="round"/>
  <path d="M113 260 L128 275 L143 260" stroke="white" stroke-width="5" stroke-linecap="round" stroke-linejoin="round" fill="none"/>
  <path d="M110 285 L146 285" stroke="white" stroke-width="4" stroke-linecap="round" opacity="0.8"/>

  <!-- Brand name -->
  <text x="184" y="278" font-family="system-ui, -apple-system, sans-serif" font-size="56" font-weight="800" letter-spacing="-2" fill="#e2e2f0">FB<tspan fill="#5b72f8">Drop</tspan></text>

  <!-- Divider -->
  <rect x="88" y="328" width="520" height="1.5" fill="#252540"/>

  <!-- Headline -->
  <text x="88" y="398" font-family="system-ui, -apple-system, sans-serif" font-size="52" font-weight="800" letter-spacing="-2" fill="#e2e2f0">Download Facebook</text>
  <text x="88" y="460" font-family="system-ui, -apple-system, sans-serif" font-size="52" font-weight="800" letter-spacing="-2">
    <tspan fill="#5b72f8">Videos</tspan>
    <tspan fill="#e2e2f0"> &amp; </tspan>
    <tspan fill="#a855f7">Reels</tspan>
  </text>

  <!-- Subtitle -->
  <text x="88" y="518" font-family="system-ui, -apple-system, sans-serif" font-size="22" fill="#6b6b8a" letter-spacing="0">Free · No login · HD quality · MP3 audio</text>

  <!-- Feature pills -->
  <rect x="88" y="548" width="100" height="34" rx="8" fill="#16162a" stroke="#252540" stroke-width="1"/>
  <text x="138" y="570" font-family="monospace" font-size="13" fill="#5b72f8" text-anchor="middle">1080p HD</text>

  <rect x="200" y="548" width="90" height="34" rx="8" fill="#16162a" stroke="#252540" stroke-width="1"/>
  <text x="245" y="570" font-family="monospace" font-size="13" fill="#a855f7" text-anchor="middle">MP3 Audio</text>

  <rect x="302" y="548" width="100" height="34" rx="8" fill="#16162a" stroke="#252540" stroke-width="1"/>
  <text x="352" y="570" font-family="monospace" font-size="13" fill="#06d6a0" text-anchor="middle">Free · Fast</text>

  <!-- Right side: mock UI card -->
  <rect x="720" y="160" width="400" height="280" rx="20" fill="#0f0f1a" stroke="#252540" stroke-width="1.5"/>
  <rect x="720" y="160" width="400" height="280" rx="20" fill="url(#glow1)" opacity="0.15"/>

  <!-- URL input mock -->
  <rect x="748" y="194" width="344" height="44" rx="10" fill="#080810" stroke="#252540" stroke-width="1"/>
  <text x="766" y="221" font-family="monospace" font-size="12" fill="#3d3d55">https://facebook.com/watch?v=...</text>

  <!-- Quality cards mock -->
  <rect x="748" y="254" width="160" height="80" rx="10" fill="#16162a" stroke="#06d6a0" stroke-width="1.5"/>
  <text x="762" y="280" font-family="system-ui, sans-serif" font-size="20" font-weight="800" fill="#e2e2f0">1080p</text>
  <text x="762" y="298" font-family="monospace" font-size="11" fill="#5a5a7a">60fps · 142 MB</text>
  <rect x="762" y="308" width="132" height="16" rx="4" fill="#06d6a0"/>
  <text x="828" y="320" font-family="system-ui, sans-serif" font-size="10" font-weight="700" fill="#000" text-anchor="middle">Download</text>

  <rect x="920" y="254" width="152" height="80" rx="10" fill="#16162a" stroke="#252540" stroke-width="1"/>
  <text x="934" y="280" font-family="system-ui, sans-serif" font-size="20" font-weight="800" fill="#e2e2f0">720p</text>
  <text x="934" y="298" font-family="monospace" font-size="11" fill="#5a5a7a">30fps · 74 MB</text>
  <rect x="934" y="308" width="124" height="16" rx="4" fill="#1e1e35" stroke="#252540" stroke-width="1"/>
  <text x="996" y="320" font-family="system-ui, sans-serif" font-size="10" fill="#6b6b8a" text-anchor="middle">Download</text>

  <!-- Audio bar mock -->
  <rect x="748" y="348" width="344" height="56" rx="10" fill="#16162a" stroke="#252540" stroke-width="1"/>
  <rect x="762" y="362" width="28" height="28" rx="6" fill="#1e1e35" stroke="#a855f7" stroke-width="1"/>
  <text x="776" y="381" font-family="sans-serif" font-size="14" text-anchor="middle">🎵</text>
  <text x="800" y="376" font-family="system-ui, sans-serif" font-size="13" font-weight="700" fill="#e2e2f0">MP3 Audio Extract</text>
  <text x="800" y="392" font-family="monospace" font-size="10" fill="#5a5a7a">128kbps · No video</text>
  <rect x="1008" y="358" width="72" height="28" rx="6" fill="#a855f7"/>
  <text x="1044" y="377" font-family="system-ui, sans-serif" font-size="12" font-weight="700" fill="white" text-anchor="middle">MP3</text>

  <!-- Shine line on card -->
  <line x1="720" y1="200" x2="1120" y2="200" stroke="url(#accent)" stroke-width="1" opacity="0.3"/>
</svg>
